# MagicaVoxel @ Ephtracy

# group
o 

# material
mtllib wall.mtl
usemtl palette

# normals
vn -1 0 0
vn 1 0 0
vn 0 0 1
vn 0 0 -1
vn 0 -1 0
vn 0 1 0

# texcoords
vt 0.677734 0.5
vt 0.681641 0.5
vt 0.685547 0.5

# verts
v 0.1 0 3.1
v 0.1 0 2.5
v 0.1 0 2.4
v 0.1 0 1.8
v 0.1 0 1.2
v 0.1 0 0.6
v 0.1 0 0
v 0.1 0 -0.6
v 0.1 0 -1.2
v 0.1 0 -1.8
v 0.1 0 -2.4
v 0.1 0 -3
v 0.1 0.3 3.1
v 0.1 0.3 2.8
v 0.1 0.3 2.5
v 0.1 0.3 2.4
v 0.1 0.3 2.2
v 0.1 0.3 1.8
v 0.1 0.3 1.2
v 0.1 0.3 1
v 0.1 0.3 0.6
v 0.1 0.3 0.4
v 0.1 0.3 0.2
v 0.1 0.3 0
v 0.1 0.3 -0.4
v 0.1 0.3 -0.6
v 0.1 0.3 -0.9
v 0.1 0.3 -1.2
v 0.1 0.3 -1.5
v 0.1 0.3 -1.8
v 0.1 0.3 -2.1
v 0.1 0.3 -2.2
v 0.1 0.3 -2.4
v 0.1 0.3 -2.8
v 0.1 0.3 -3
v 0.1 0.6 2.8
v 0.1 0.6 2.5
v 0.1 0.6 2.2
v 0.1 0.6 1.9
v 0.1 0.6 1.3
v 0.1 0.6 1
v 0.1 0.6 0.4
v 0.1 0.6 0.2
v 0.1 0.6 -0.4
v 0.1 0.6 -0.9
v 0.1 0.6 -1.1
v 0.1 0.6 -1.5
v 0.1 0.6 -1.7
v 0.1 0.6 -2.1
v 0.1 0.6 -2.2
v 0.1 0.6 -2.8
v 0.1 0.9 2.5
v 0.1 0.9 1.9
v 0.1 0.9 1.3
v 0.1 0.9 -1.1
v 0.1 0.9 -1.7
v 0.5 0 3.1
v 0.5 0 2.5
v 0.5 0 2.4
v 0.5 0 1.8
v 0.5 0 1.2
v 0.5 0 0.6
v 0.5 0 0
v 0.5 0 -0.6
v 0.5 0 -1.2
v 0.5 0 -1.8
v 0.5 0 -2.4
v 0.5 0 -3
v 0.5 0.3 3.1
v 0.5 0.3 2.8
v 0.5 0.3 2.5
v 0.5 0.3 2.4
v 0.5 0.3 2.2
v 0.5 0.3 1.8
v 0.5 0.3 1.2
v 0.5 0.3 1
v 0.5 0.3 0.6
v 0.5 0.3 0.4
v 0.5 0.3 0.2
v 0.5 0.3 0
v 0.5 0.3 -0.4
v 0.5 0.3 -0.6
v 0.5 0.3 -0.9
v 0.5 0.3 -1.2
v 0.5 0.3 -1.5
v 0.5 0.3 -1.8
v 0.5 0.3 -2.1
v 0.5 0.3 -2.2
v 0.5 0.3 -2.4
v 0.5 0.3 -2.8
v 0.5 0.3 -3
v 0.5 0.6 2.8
v 0.5 0.6 2.5
v 0.5 0.6 2.2
v 0.5 0.6 1.9
v 0.5 0.6 1.3
v 0.5 0.6 1
v 0.5 0.6 0.4
v 0.5 0.6 0.2
v 0.5 0.6 -0.4
v 0.5 0.6 -0.9
v 0.5 0.6 -1.1
v 0.5 0.6 -1.5
v 0.5 0.6 -1.7
v 0.5 0.6 -2.1
v 0.5 0.6 -2.2
v 0.5 0.6 -2.8
v 0.5 0.9 2.5
v 0.5 0.9 1.9
v 0.5 0.9 1.3
v 0.5 0.9 -1.1
v 0.5 0.9 -1.7
v 0.1 0 3.1
v 0.1 0.3 3.1
v 0.5 0 3.1
v 0.5 0.3 3.1
v 0.1 0.3 2.8
v 0.1 0.6 2.8
v 0.5 0.3 2.8
v 0.5 0.6 2.8
v 0.1 0.6 2.5
v 0.1 0.9 2.5
v 0.5 0.6 2.5
v 0.5 0.9 2.5
v 0.1 0 2.4
v 0.1 0.3 2.4
v 0.5 0 2.4
v 0.5 0.3 2.4
v 0.1 0 0.6
v 0.1 0.3 0.6
v 0.5 0 0.6
v 0.5 0.3 0.6
v 0.1 0.3 0.2
v 0.1 0.6 0.2
v 0.5 0.3 0.2
v 0.5 0.6 0.2
v 0.1 0.3 -0.9
v 0.1 0.6 -0.9
v 0.5 0.3 -0.9
v 0.5 0.6 -0.9
v 0.1 0.6 -1.1
v 0.1 0.9 -1.1
v 0.5 0.6 -1.1
v 0.5 0.9 -1.1
v 0.1 0.3 -2.2
v 0.1 0.6 -2.2
v 0.5 0.3 -2.2
v 0.5 0.6 -2.2
v 0.1 0 -2.4
v 0.1 0.3 -2.4
v 0.5 0 -2.4
v 0.5 0.3 -2.4
v 0.1 0 2.5
v 0.1 0.3 2.5
v 0.5 0 2.5
v 0.5 0.3 2.5
v 0.1 0.6 1.3
v 0.1 0.9 1.3
v 0.5 0.6 1.3
v 0.5 0.9 1.3
v 0.1 0 1.2
v 0.1 0.3 1.2
v 0.5 0 1.2
v 0.5 0.3 1.2
v 0.1 0.3 0.4
v 0.1 0.6 0.4
v 0.5 0.3 0.4
v 0.5 0.6 0.4
v 0.1 0.3 -0.4
v 0.1 0.6 -0.4
v 0.5 0.3 -0.4
v 0.5 0.6 -0.4
v 0.1 0.6 -1.7
v 0.1 0.9 -1.7
v 0.5 0.6 -1.7
v 0.5 0.9 -1.7
v 0.1 0 -1.8
v 0.1 0.3 -1.8
v 0.5 0 -1.8
v 0.5 0.3 -1.8
v 0.1 0.3 -2.1
v 0.1 0.6 -2.1
v 0.5 0.3 -2.1
v 0.5 0.6 -2.1
v 0.1 0.3 -2.8
v 0.1 0.6 -2.8
v 0.5 0.3 -2.8
v 0.5 0.6 -2.8
v 0.1 0 -3
v 0.1 0.3 -3
v 0.5 0 -3
v 0.5 0.3 -3
v 0.1 0 3.1
v 0.5 0 3.1
v 0.1 0 2.5
v 0.5 0 2.5
v 0.1 0 2.4
v 0.5 0 2.4
v 0.1 0 1.8
v 0.5 0 1.8
v 0.1 0 1.2
v 0.5 0 1.2
v 0.1 0 0.6
v 0.5 0 0.6
v 0.1 0 0
v 0.5 0 0
v 0.1 0 -0.6
v 0.5 0 -0.6
v 0.1 0 -1.2
v 0.5 0 -1.2
v 0.1 0 -1.8
v 0.5 0 -1.8
v 0.1 0 -2.4
v 0.5 0 -2.4
v 0.1 0 -3
v 0.5 0 -3
v 0.1 0.3 2.5
v 0.5 0.3 2.5
v 0.1 0.3 2.4
v 0.5 0.3 2.4
v 0.1 0.3 1.2
v 0.5 0.3 1.2
v 0.1 0.3 1
v 0.5 0.3 1
v 0.1 0.3 0.6
v 0.5 0.3 0.6
v 0.1 0.3 -1.8
v 0.5 0.3 -1.8
v 0.1 0.3 -2.1
v 0.5 0.3 -2.1
v 0.1 0.3 -2.2
v 0.5 0.3 -2.2
v 0.1 0.3 -2.4
v 0.5 0.3 -2.4
v 0.1 0.3 3.1
v 0.5 0.3 3.1
v 0.1 0.3 2.8
v 0.5 0.3 2.8
v 0.1 0.3 0.4
v 0.5 0.3 0.4
v 0.1 0.3 0.2
v 0.5 0.3 0.2
v 0.1 0.3 -0.4
v 0.5 0.3 -0.4
v 0.1 0.3 -0.6
v 0.5 0.3 -0.6
v 0.1 0.3 -0.9
v 0.5 0.3 -0.9
v 0.1 0.3 -2.8
v 0.5 0.3 -2.8
v 0.1 0.3 -3
v 0.5 0.3 -3
v 0.1 0.6 2.8
v 0.5 0.6 2.8
v 0.1 0.6 2.5
v 0.5 0.6 2.5
v 0.1 0.6 1.3
v 0.5 0.6 1.3
v 0.1 0.6 1
v 0.5 0.6 1
v 0.1 0.6 0.4
v 0.5 0.6 0.4
v 0.1 0.6 0.2
v 0.5 0.6 0.2
v 0.1 0.6 -0.4
v 0.5 0.6 -0.4
v 0.1 0.6 -0.9
v 0.5 0.6 -0.9
v 0.1 0.6 -1.1
v 0.5 0.6 -1.1
v 0.1 0.6 -1.7
v 0.5 0.6 -1.7
v 0.1 0.6 -2.1
v 0.5 0.6 -2.1
v 0.1 0.6 -2.2
v 0.5 0.6 -2.2
v 0.1 0.6 -2.8
v 0.5 0.6 -2.8
v 0.1 0.9 2.5
v 0.5 0.9 2.5
v 0.1 0.9 1.9
v 0.5 0.9 1.9
v 0.1 0.9 1.3
v 0.5 0.9 1.3
v 0.1 0.9 -1.1
v 0.5 0.9 -1.1
v 0.1 0.9 -1.7
v 0.5 0.9 -1.7

# faces
f 13/3/1 2/3/1 1/3/1
f 14/3/1 2/3/1 13/3/1
f 15/3/1 2/3/1 14/3/1
f 16/3/1 4/3/1 3/3/1
f 17/3/1 4/3/1 16/3/1
f 18/2/1 5/2/1 4/2/1
f 18/3/1 4/3/1 17/3/1
f 19/2/1 5/2/1 18/2/1
f 21/3/1 7/3/1 6/3/1
f 22/3/1 7/3/1 21/3/1
f 23/3/1 7/3/1 22/3/1
f 24/2/1 8/2/1 7/2/1
f 24/3/1 7/3/1 23/3/1
f 25/2/1 8/2/1 24/2/1
f 26/1/1 9/1/1 8/1/1
f 26/2/1 8/2/1 25/2/1
f 27/1/1 9/1/1 26/1/1
f 28/3/1 10/3/1 9/3/1
f 28/1/1 9/1/1 27/1/1
f 29/3/1 10/3/1 28/3/1
f 30/3/1 10/3/1 29/3/1
f 33/1/1 12/1/1 11/1/1
f 34/1/1 12/1/1 33/1/1
f 35/1/1 12/1/1 34/1/1
f 36/2/1 15/2/1 14/2/1
f 36/2/1 17/2/1 16/2/1
f 36/2/1 16/2/1 15/2/1
f 37/2/1 17/2/1 36/2/1
f 38/1/1 20/1/1 19/1/1
f 38/2/1 17/2/1 37/2/1
f 38/1/1 18/1/1 17/1/1
f 38/1/1 19/1/1 18/1/1
f 39/1/1 20/1/1 38/1/1
f 40/1/1 20/1/1 39/1/1
f 41/2/1 21/2/1 20/2/1
f 41/1/1 20/1/1 40/1/1
f 41/2/1 22/2/1 21/2/1
f 42/2/1 22/2/1 41/2/1
f 43/3/1 25/3/1 24/3/1
f 43/3/1 24/3/1 23/3/1
f 44/3/1 25/3/1 43/3/1
f 45/2/1 29/2/1 28/2/1
f 45/2/1 28/2/1 27/2/1
f 46/2/1 29/2/1 45/2/1
f 47/1/1 31/1/1 30/1/1
f 47/2/1 29/2/1 46/2/1
f 47/1/1 30/1/1 29/1/1
f 48/1/1 31/1/1 47/1/1
f 49/1/1 31/1/1 48/1/1
f 50/2/1 34/2/1 33/2/1
f 50/2/1 33/2/1 32/2/1
f 51/2/1 34/2/1 50/2/1
f 52/2/1 38/2/1 37/2/1
f 52/2/1 39/2/1 38/2/1
f 53/3/1 40/3/1 39/3/1
f 53/2/1 39/2/1 52/2/1
f 54/3/1 40/3/1 53/3/1
f 55/3/1 47/3/1 46/3/1
f 55/3/1 48/3/1 47/3/1
f 56/3/1 48/3/1 55/3/1
f 57/3/2 58/3/2 69/3/2
f 69/3/2 58/3/2 70/3/2
f 70/3/2 58/3/2 71/3/2
f 59/3/2 60/3/2 72/3/2
f 72/3/2 60/3/2 73/3/2
f 60/2/2 61/2/2 74/2/2
f 73/3/2 60/3/2 74/3/2
f 74/2/2 61/2/2 75/2/2
f 62/3/2 63/3/2 77/3/2
f 77/3/2 63/3/2 78/3/2
f 78/3/2 63/3/2 79/3/2
f 63/2/2 64/2/2 80/2/2
f 79/3/2 63/3/2 80/3/2
f 80/2/2 64/2/2 81/2/2
f 64/1/2 65/1/2 82/1/2
f 81/2/2 64/2/2 82/2/2
f 82/1/2 65/1/2 83/1/2
f 65/3/2 66/3/2 84/3/2
f 83/1/2 65/1/2 84/1/2
f 84/3/2 66/3/2 85/3/2
f 85/3/2 66/3/2 86/3/2
f 67/1/2 68/1/2 89/1/2
f 89/1/2 68/1/2 90/1/2
f 90/1/2 68/1/2 91/1/2
f 70/2/2 71/2/2 92/2/2
f 72/2/2 73/2/2 92/2/2
f 71/2/2 72/2/2 92/2/2
f 92/2/2 73/2/2 93/2/2
f 75/1/2 76/1/2 94/1/2
f 93/2/2 73/2/2 94/2/2
f 73/1/2 74/1/2 94/1/2
f 74/1/2 75/1/2 94/1/2
f 94/1/2 76/1/2 95/1/2
f 95/1/2 76/1/2 96/1/2
f 76/2/2 77/2/2 97/2/2
f 96/1/2 76/1/2 97/1/2
f 77/2/2 78/2/2 97/2/2
f 97/2/2 78/2/2 98/2/2
f 80/3/2 81/3/2 99/3/2
f 79/3/2 80/3/2 99/3/2
f 99/3/2 81/3/2 100/3/2
f 84/2/2 85/2/2 101/2/2
f 83/2/2 84/2/2 101/2/2
f 101/2/2 85/2/2 102/2/2
f 86/1/2 87/1/2 103/1/2
f 102/2/2 85/2/2 103/2/2
f 85/1/2 86/1/2 103/1/2
f 103/1/2 87/1/2 104/1/2
f 104/1/2 87/1/2 105/1/2
f 89/2/2 90/2/2 106/2/2
f 88/2/2 89/2/2 106/2/2
f 106/2/2 90/2/2 107/2/2
f 93/2/2 94/2/2 108/2/2
f 94/2/2 95/2/2 108/2/2
f 95/3/2 96/3/2 109/3/2
f 108/2/2 95/2/2 109/2/2
f 109/3/2 96/3/2 110/3/2
f 102/3/2 103/3/2 111/3/2
f 103/3/2 104/3/2 111/3/2
f 111/3/2 104/3/2 112/3/2
f 115/3/3 114/3/3 113/3/3
f 116/3/3 114/3/3 115/3/3
f 119/2/3 118/2/3 117/2/3
f 120/2/3 118/2/3 119/2/3
f 123/2/3 122/2/3 121/2/3
f 124/2/3 122/2/3 123/2/3
f 127/3/3 126/3/3 125/3/3
f 128/3/3 126/3/3 127/3/3
f 131/3/3 130/3/3 129/3/3
f 132/3/3 130/3/3 131/3/3
f 135/3/3 134/3/3 133/3/3
f 136/3/3 134/3/3 135/3/3
f 139/2/3 138/2/3 137/2/3
f 140/2/3 138/2/3 139/2/3
f 143/3/3 142/3/3 141/3/3
f 144/3/3 142/3/3 143/3/3
f 147/2/3 146/2/3 145/2/3
f 148/2/3 146/2/3 147/2/3
f 151/1/3 150/1/3 149/1/3
f 152/1/3 150/1/3 151/1/3
f 153/3/4 154/3/4 155/3/4
f 155/3/4 154/3/4 156/3/4
f 157/3/4 158/3/4 159/3/4
f 159/3/4 158/3/4 160/3/4
f 161/2/4 162/2/4 163/2/4
f 163/2/4 162/2/4 164/2/4
f 165/2/4 166/2/4 167/2/4
f 167/2/4 166/2/4 168/2/4
f 169/3/4 170/3/4 171/3/4
f 171/3/4 170/3/4 172/3/4
f 173/3/4 174/3/4 175/3/4
f 175/3/4 174/3/4 176/3/4
f 177/3/4 178/3/4 179/3/4
f 179/3/4 178/3/4 180/3/4
f 181/1/4 182/1/4 183/1/4
f 183/1/4 182/1/4 184/1/4
f 185/2/4 186/2/4 187/2/4
f 187/2/4 186/2/4 188/2/4
f 189/1/4 190/1/4 191/1/4
f 191/1/4 190/1/4 192/1/4
f 195/3/5 194/3/5 193/3/5
f 196/3/5 194/3/5 195/3/5
f 199/3/5 198/3/5 197/3/5
f 200/3/5 198/3/5 199/3/5
f 201/2/5 200/2/5 199/2/5
f 202/2/5 200/2/5 201/2/5
f 205/3/5 204/3/5 203/3/5
f 206/3/5 204/3/5 205/3/5
f 207/2/5 206/2/5 205/2/5
f 208/2/5 206/2/5 207/2/5
f 209/1/5 208/1/5 207/1/5
f 210/1/5 208/1/5 209/1/5
f 211/3/5 210/3/5 209/3/5
f 212/3/5 210/3/5 211/3/5
f 215/1/5 214/1/5 213/1/5
f 216/1/5 214/1/5 215/1/5
f 219/2/5 218/2/5 217/2/5
f 220/2/5 218/2/5 219/2/5
f 223/1/5 222/1/5 221/1/5
f 224/1/5 222/1/5 223/1/5
f 225/2/5 224/2/5 223/2/5
f 226/2/5 224/2/5 225/2/5
f 229/1/5 228/1/5 227/1/5
f 230/1/5 228/1/5 229/1/5
f 233/2/5 232/2/5 231/2/5
f 234/2/5 232/2/5 233/2/5
f 235/3/6 236/3/6 237/3/6
f 237/3/6 236/3/6 238/3/6
f 239/3/6 240/3/6 241/3/6
f 241/3/6 240/3/6 242/3/6
f 243/2/6 244/2/6 245/2/6
f 245/2/6 244/2/6 246/2/6
f 245/1/6 246/1/6 247/1/6
f 247/1/6 246/1/6 248/1/6
f 249/1/6 250/1/6 251/1/6
f 251/1/6 250/1/6 252/1/6
f 253/2/6 254/2/6 255/2/6
f 255/2/6 254/2/6 256/2/6
f 257/1/6 258/1/6 259/1/6
f 259/1/6 258/1/6 260/1/6
f 259/2/6 260/2/6 261/2/6
f 261/2/6 260/2/6 262/2/6
f 263/3/6 264/3/6 265/3/6
f 265/3/6 264/3/6 266/3/6
f 267/2/6 268/2/6 269/2/6
f 269/2/6 268/2/6 270/2/6
f 271/1/6 272/1/6 273/1/6
f 273/1/6 272/1/6 274/1/6
f 275/2/6 276/2/6 277/2/6
f 277/2/6 276/2/6 278/2/6
f 279/2/6 280/2/6 281/2/6
f 281/2/6 280/2/6 282/2/6
f 281/3/6 282/3/6 283/3/6
f 283/3/6 282/3/6 284/3/6
f 285/3/6 286/3/6 287/3/6
f 287/3/6 286/3/6 288/3/6
